<?xml version="1.0" standalone="no"?>
<!DOCTYPE svg PUBLIC "-//W3C//DTD SVG 20010904//EN"
 "http://www.w3.org/TR/2001/REC-SVG-20010904/DTD/svg10.dtd">
<svg version="1.0" xmlns="http://www.w3.org/2000/svg"
 width="1412.000000pt" height="1412.000000pt" viewBox="0 0 1412.000000 1412.000000"
 preserveAspectRatio="xMidYMid meet">
<metadata>
Created by potrace 1.11, written by Peter Selinger 2001-2013
</metadata>
<g transform="translate(0.000000,1412.000000) scale(0.100000,-0.100000)"
fill="#000000" stroke="none">
<path d="M7970 11779 c-306 -31 -608 -139 -809 -289 -163 -122 -304 -295 -371
-458 -83 -199 -110 -437 -75 -667 27 -179 22 -215 -59 -383 -37 -78 -66 -147
-64 -153 6 -17 96 68 137 130 60 89 91 152 201 394 139 309 225 443 381 598
71 71 203 166 324 235 46 26 38 15 -95 -124 -361 -379 -428 -485 -610 -966
l-11 -29 138 6 c429 19 717 210 957 635 61 109 144 296 262 594 53 133 120
290 150 349 47 94 51 108 36 113 -31 10 -245 26 -327 25 -44 -1 -118 -6 -165
-10z"/>
<path d="M13545 11779 c-310 -32 -612 -139 -814 -289 -165 -123 -310 -306
-380 -482 -76 -188 -100 -425 -66 -637 28 -173 21 -222 -52 -376 -34 -72 -65
-141 -68 -154 l-7 -24 30 22 c91 65 162 181 307 503 113 250 152 322 246 449
115 154 269 285 464 394 l50 28 -45 -49 c-25 -27 -109 -114 -185 -194 -263
-273 -354 -423 -511 -839 l-24 -64 137 6 c403 18 690 193 914 558 78 129 155
296 289 629 67 168 144 349 171 402 57 113 65 103 -96 118 -124 11 -243 11
-360 -1z"/>
<path d="M1213 9234 c-46 -23 -74 -69 -148 -249 -373 -898 -717 -2256 -835
-3290 -28 -250 -27 -307 7 -376 32 -64 162 -198 244 -252 156 -101 299 -151
419 -145 103 4 109 11 122 124 72 671 726 2172 1349 3094 137 203 366 492 345
435 -4 -11 -48 -139 -96 -285 -266 -793 -471 -1691 -576 -2525 -35 -278 -37
-386 -7 -442 82 -153 302 -319 507 -382 45 -14 95 -21 146 -21 106 0 127 17
141 115 40 270 70 394 160 672 309 953 823 1983 1314 2637 98 131 195 249 200
244 2 -2 -25 -93 -60 -202 -236 -723 -438 -1541 -559 -2256 -52 -308 -96 -622
-96 -689 0 -224 206 -449 466 -506 109 -25 275 -17 366 17 304 113 660 488
998 1050 44 73 80 127 80 121 0 -5 -5 -35 -10 -64 -16 -82 -41 -320 -47 -441
-6 -132 12 -222 66 -334 88 -182 220 -301 385 -349 82 -24 246 -17 336 14 299
103 700 529 1030 1095 34 58 63 106 65 106 1 0 -2 -24 -7 -52 -17 -110 -57
-428 -68 -555 -11 -114 -10 -138 3 -177 45 -132 218 -292 411 -382 99 -45 175
-64 263 -64 107 0 119 13 133 155 33 326 198 830 496 1512 340 777 734 1469
1069 1878 45 55 92 109 105 120 l22 20 -14 -35 c-27 -63 -156 -481 -232 -747
-206 -720 -348 -1380 -452 -2098 -44 -308 -43 -353 15 -470 68 -137 210 -258
361 -307 91 -29 272 -36 360 -14 319 81 700 465 1064 1071 36 61 66 106 66
100 0 -5 -5 -28 -10 -51 -12 -54 -41 -314 -47 -437 -6 -115 6 -192 49 -294 57
-139 147 -250 262 -325 84 -54 168 -78 278 -78 221 0 395 94 654 354 234 235
436 516 661 921 117 209 353 688 466 945 95 214 371 895 389 957 13 47 -5 103
-46 143 -63 61 -173 50 -220 -22 -8 -13 -80 -185 -159 -383 -179 -446 -287
-693 -431 -991 -277 -568 -545 -983 -819 -1270 -91 -95 -125 -118 -173 -112
-53 6 -53 44 0 314 177 900 446 1895 692 2562 36 97 77 209 90 247 13 39 43
109 65 156 54 112 51 141 -24 201 -209 166 -497 299 -658 302 -130 2 -150 -24
-294 -389 -158 -398 -328 -933 -454 -1431 -52 -206 -61 -230 -203 -528 -201
-421 -429 -809 -634 -1076 -156 -205 -332 -380 -379 -380 -25 0 -45 37 -45 81
0 144 158 867 340 1554 193 732 368 1271 524 1612 58 127 63 158 38 216 -47
106 -314 256 -573 321 -214 54 -276 31 -494 -189 -340 -342 -779 -1022 -1176
-1820 -82 -165 -149 -296 -149 -291 0 6 22 96 50 201 155 599 400 1346 521
1589 64 127 64 155 6 211 -144 137 -493 305 -670 322 -113 10 -144 -20 -232
-227 -178 -418 -345 -925 -491 -1487 -50 -195 -103 -327 -273 -678 -270 -557
-549 -991 -821 -1278 -89 -95 -122 -117 -169 -117 -34 0 -51 22 -51 66 0 72
149 779 246 1167 107 430 256 951 381 1332 84 256 218 619 263 713 22 45 40
91 40 103 0 43 -33 81 -135 153 -187 132 -423 237 -568 252 -118 12 -162 -28
-243 -219 -187 -443 -355 -952 -503 -1522 -53 -208 -68 -249 -146 -420 -310
-675 -599 -1149 -918 -1506 -51 -57 -103 -105 -130 -119 -44 -23 -45 -23 -72
-6 -28 18 -28 19 -22 105 12 167 99 578 252 1191 144 574 280 1034 432 1465
41 116 90 255 110 310 19 55 50 125 68 155 96 160 77 244 -81 350 -194 129
-498 233 -635 217 -75 -9 -126 -37 -221 -121 -356 -312 -834 -1034 -1280
-1931 -82 -165 -147 -291 -144 -280 160 620 340 1205 496 1610 125 325 129
345 81 412 -47 65 -110 109 -252 177 -299 143 -501 170 -620 84 -65 -47 -213
-192 -308 -303 -341 -396 -795 -1138 -1127 -1842 -41 -87 -74 -154 -74 -150 0
22 91 366 165 622 142 497 322 1013 415 1198 28 54 50 108 50 120 0 43 -39 85
-141 153 -155 103 -368 207 -476 233 -107 25 -157 26 -200 5z"/>
<path d="M0 3491 c0 -100 3 -181 6 -181 4 0 187 -39 408 -86 3668 -783 6122
-1020 8596 -829 1470 114 3018 390 5003 892 l107 27 0 179 c0 145 -3 178 -13
174 -8 -3 -110 -32 -228 -65 -2681 -753 -5319 -1040 -8049 -876 -1363 81
-2770 282 -4405 629 -297 63 -1374 301 -1407 311 -17 5 -18 -8 -18 -175z"/>
</g>
</svg>
